<svg width="24" height="24" viewBox="0 0 24 24" fill="none" xmlns="http://www.w3.org/2000/svg">
<path d="M13.3333 24H8V8H13.3333V10.6667C13.8948 9.95236 14.6074 9.37116 15.42 8.96475C16.2326 8.55834 17.125 8.33679 18.0333 8.316C19.6219 8.32482 21.1421 8.96323 22.2606 10.0912C23.3791 11.2193 24.0046 12.7448 24 14.3333V24H18.6667V15C18.5635 14.2794 18.2036 13.6204 17.6531 13.1441C17.1026 12.6678 16.3986 12.4064 15.6707 12.408C15.3449 12.4183 15.0245 12.4943 14.7288 12.6315C14.4331 12.7686 14.1682 12.9641 13.9499 13.2062C13.7316 13.4482 13.5645 13.7319 13.4585 14.0402C13.3526 14.3484 13.31 14.6749 13.3333 15V24ZM5.33333 24H0V8H5.33333V24ZM2.66667 5.33333C1.95942 5.33333 1.28115 5.05238 0.781048 4.55229C0.280951 4.05219 0 3.37391 0 2.66667C0 1.95942 0.280951 1.28115 0.781048 0.781048C1.28115 0.280951 1.95942 0 2.66667 0C3.37391 0 4.05219 0.280951 4.55229 0.781048C5.05238 1.28115 5.33333 1.95942 5.33333 2.66667C5.33333 3.37391 5.05238 4.05219 4.55229 4.55229C4.05219 5.05238 3.37391 5.33333 2.66667 5.33333Z" fill="white"/>
</svg>
