<svg width="48" height="48" viewBox="0 0 48 48" fill="none" xmlns="http://www.w3.org/2000/svg">
<path d="M24 48L21.12 47.9856C12.18 47.8896 6.7632 47.2656 3.7488 44.2512C0.7344 41.2368 0.1128 35.8152 0.0144001 26.88L0 23.256L0.0144001 21.12C-0.0527999 17.3568 0.2304 13.596 0.8544 9.8856C1.18789 7.48802 2.28143 5.26057 3.9744 3.5304C7.1352 0.6072 12.7032 0.048 22.5312 0L26.88 0.0120003C36.3864 0.1152 41.76 0.792 44.676 4.2072C47.5032 7.5048 48 13.2168 48 24L47.988 26.88C47.8848 36.3864 47.208 41.76 43.7904 44.676C40.4928 47.5008 34.7808 48 24 48V48ZM13.6008 12C13.2168 12.0003 12.8455 12.1382 12.5545 12.3887C12.2634 12.6393 12.0718 12.9859 12.0144 13.3656L12 13.5984V22.3968C12.0013 22.7799 12.1393 23.15 12.3892 23.4404C12.6391 23.7309 12.9845 23.9225 13.3632 23.9808L13.6032 23.9976H15C17.3057 23.9955 19.5244 24.8779 21.1988 26.463C22.8733 28.0482 23.8759 30.2152 24 32.5176V34.3944C24.0048 35.1864 24.5808 35.8584 25.3632 35.9808L25.6032 35.9976H34.404C34.7875 35.9963 35.1579 35.8579 35.4483 35.6075C35.7388 35.3571 35.9302 35.0111 35.988 34.632L36.0048 34.392V32.9952C36.0065 27.5311 33.8782 22.2816 30.0718 18.3614C26.2655 14.4413 21.0809 12.1593 15.6192 12H13.6008V12Z" fill="white"/>
</svg>
